<svg xmlns="http://www.w3.org/2000/svg" width="1100" height="480" viewBox="0 0 1100 480">
<rect width="100%" height="100%" fill="#ffffff"/>
<text x="48" y="28" font-family="sans-serif" font-size="18" fill="#1a1a1a">MI455X end-to-end advantage over MI355X</text>
<text x="48" y="50" font-family="sans-serif" font-size="13" fill="#555">Prefill is time to first token. Decode is steady time per output token. Above 1.0x, MI455X is faster.</text>
<rect x="48" y="62" width="14" height="14" fill="#8d98a3"/>
<text x="68" y="74" font-family="sans-serif" font-size="13" fill="#1a1a1a">927562ef, measured 2026-10-03</text>
<rect x="320" y="62" width="14" height="14" fill="#1f6feb"/>
<text x="340" y="74" font-family="sans-serif" font-size="13" fill="#1a1a1a">0d579b89, measured 2026-10-08</text>
<line x1="48" y1="392.0" x2="1076" y2="392.0" stroke="#e6e6e6"/>
<text x="40" y="396.0" text-anchor="end" font-family="sans-serif" font-size="11" fill="#666">0x</text>
<line x1="48" y1="308.7" x2="1076" y2="308.7" stroke="#e6e6e6"/>
<text x="40" y="312.7" text-anchor="end" font-family="sans-serif" font-size="11" fill="#666">1x</text>
<line x1="48" y1="225.3" x2="1076" y2="225.3" stroke="#e6e6e6"/>
<text x="40" y="229.3" text-anchor="end" font-family="sans-serif" font-size="11" fill="#666">2x</text>
<line x1="48" y1="142.0" x2="1076" y2="142.0" stroke="#e6e6e6"/>
<text x="40" y="146.0" text-anchor="end" font-family="sans-serif" font-size="11" fill="#666">3x</text>
<line x1="48" y1="308.7" x2="1076" y2="308.7" stroke="#888" stroke-dasharray="4 3"/>
<rect x="74.8" y="315.3" width="14" height="76.7" fill="#8d98a3"/>
<text x="81.8" y="312.3" text-anchor="middle" font-family="sans-serif" font-size="9" fill="#333">0.92x</text>
<rect x="92.8" y="239.5" width="14" height="152.5" fill="#1f6feb"/>
<text x="99.8" y="236.5" text-anchor="middle" font-family="sans-serif" font-size="9" fill="#333">1.83x</text>
<text x="90.8" y="408" text-anchor="middle" font-family="sans-serif" font-size="10" fill="#444">prefill c1</text>
<rect x="160.5" y="310.3" width="14" height="81.7" fill="#8d98a3"/>
<text x="167.5" y="307.3" text-anchor="middle" font-family="sans-serif" font-size="9" fill="#333">0.98x</text>
<rect x="178.5" y="228.7" width="14" height="163.3" fill="#1f6feb"/>
<text x="185.5" y="225.7" text-anchor="middle" font-family="sans-serif" font-size="9" fill="#333">1.96x</text>
<text x="176.5" y="408" text-anchor="middle" font-family="sans-serif" font-size="10" fill="#444">prefill c16</text>
<rect x="246.2" y="312.0" width="14" height="80.0" fill="#8d98a3"/>
<text x="253.2" y="309.0" text-anchor="middle" font-family="sans-serif" font-size="9" fill="#333">0.96x</text>
<rect x="264.2" y="240.3" width="14" height="151.7" fill="#1f6feb"/>
<text x="271.2" y="237.3" text-anchor="middle" font-family="sans-serif" font-size="9" fill="#333">1.82x</text>
<text x="262.2" y="408" text-anchor="middle" font-family="sans-serif" font-size="10" fill="#444">decode c1</text>
<rect x="331.8" y="342.0" width="14" height="50.0" fill="#8d98a3"/>
<text x="338.8" y="339.0" text-anchor="middle" font-family="sans-serif" font-size="9" fill="#333">0.60x</text>
<rect x="349.8" y="207.8" width="14" height="184.2" fill="#1f6feb"/>
<text x="356.8" y="204.8" text-anchor="middle" font-family="sans-serif" font-size="9" fill="#333">2.21x</text>
<text x="347.8" y="408" text-anchor="middle" font-family="sans-serif" font-size="10" fill="#444">decode c16</text>
<text x="219.3" y="428" text-anchor="middle" font-family="sans-serif" font-size="12" font-weight="600" fill="#1a1a1a">GLM-5.3-Flash MTP</text>
<rect x="417.5" y="335.3" width="14" height="56.7" fill="#8d98a3"/>
<text x="424.5" y="332.3" text-anchor="middle" font-family="sans-serif" font-size="9" fill="#333">0.68x</text>
<rect x="435.5" y="161.2" width="14" height="230.8" fill="#1f6feb"/>
<text x="442.5" y="158.2" text-anchor="middle" font-family="sans-serif" font-size="9" fill="#333">2.77x</text>
<text x="433.5" y="408" text-anchor="middle" font-family="sans-serif" font-size="10" fill="#444">prefill c1</text>
<rect x="503.2" y="335.3" width="14" height="56.7" fill="#8d98a3"/>
<text x="510.2" y="332.3" text-anchor="middle" font-family="sans-serif" font-size="9" fill="#333">0.68x</text>
<rect x="521.2" y="146.2" width="14" height="245.8" fill="#1f6feb"/>
<text x="528.2" y="143.2" text-anchor="middle" font-family="sans-serif" font-size="9" fill="#333">2.95x</text>
<text x="519.2" y="408" text-anchor="middle" font-family="sans-serif" font-size="10" fill="#444">prefill c16</text>
<rect x="588.8" y="337.8" width="14" height="54.2" fill="#8d98a3"/>
<text x="595.8" y="334.8" text-anchor="middle" font-family="sans-serif" font-size="9" fill="#333">0.65x</text>
<rect x="606.8" y="225.3" width="14" height="166.7" fill="#1f6feb"/>
<text x="613.8" y="222.3" text-anchor="middle" font-family="sans-serif" font-size="9" fill="#333">2.00x</text>
<text x="604.8" y="408" text-anchor="middle" font-family="sans-serif" font-size="10" fill="#444">decode c1</text>
<rect x="674.5" y="355.3" width="14" height="36.7" fill="#8d98a3"/>
<text x="681.5" y="352.3" text-anchor="middle" font-family="sans-serif" font-size="9" fill="#333">0.44x</text>
<rect x="692.5" y="203.7" width="14" height="188.3" fill="#1f6feb"/>
<text x="699.5" y="200.7" text-anchor="middle" font-family="sans-serif" font-size="9" fill="#333">2.26x</text>
<text x="690.5" y="408" text-anchor="middle" font-family="sans-serif" font-size="10" fill="#444">decode c16</text>
<text x="562.0" y="428" text-anchor="middle" font-family="sans-serif" font-size="12" font-weight="600" fill="#1a1a1a">DeepSeek-V4.1-Flash DSPARK</text>
<rect x="760.2" y="267.0" width="14" height="125.0" fill="#8d98a3"/>
<text x="767.2" y="264.0" text-anchor="middle" font-family="sans-serif" font-size="9" fill="#333">1.50x</text>
<rect x="778.2" y="268.7" width="14" height="123.3" fill="#1f6feb"/>
<text x="785.2" y="265.7" text-anchor="middle" font-family="sans-serif" font-size="9" fill="#333">1.48x</text>
<text x="776.2" y="408" text-anchor="middle" font-family="sans-serif" font-size="10" fill="#444">prefill c1</text>
<rect x="845.8" y="261.2" width="14" height="130.8" fill="#8d98a3"/>
<text x="852.8" y="258.2" text-anchor="middle" font-family="sans-serif" font-size="9" fill="#333">1.57x</text>
<rect x="863.8" y="263.7" width="14" height="128.3" fill="#1f6feb"/>
<text x="870.8" y="260.7" text-anchor="middle" font-family="sans-serif" font-size="9" fill="#333">1.54x</text>
<text x="861.8" y="408" text-anchor="middle" font-family="sans-serif" font-size="10" fill="#444">prefill c16</text>
<rect x="931.5" y="265.3" width="14" height="126.7" fill="#8d98a3"/>
<text x="938.5" y="262.3" text-anchor="middle" font-family="sans-serif" font-size="9" fill="#333">1.52x</text>
<rect x="949.5" y="266.2" width="14" height="125.8" fill="#1f6feb"/>
<text x="956.5" y="263.2" text-anchor="middle" font-family="sans-serif" font-size="9" fill="#333">1.51x</text>
<text x="947.5" y="408" text-anchor="middle" font-family="sans-serif" font-size="10" fill="#444">decode c1</text>
<rect x="1017.2" y="290.3" width="14" height="101.7" fill="#8d98a3"/>
<text x="1024.2" y="287.3" text-anchor="middle" font-family="sans-serif" font-size="9" fill="#333">1.22x</text>
<rect x="1035.2" y="250.3" width="14" height="141.7" fill="#1f6feb"/>
<text x="1042.2" y="247.3" text-anchor="middle" font-family="sans-serif" font-size="9" fill="#333">1.70x</text>
<text x="1033.2" y="408" text-anchor="middle" font-family="sans-serif" font-size="10" fill="#444">decode c16</text>
<text x="904.7" y="428" text-anchor="middle" font-family="sans-serif" font-size="12" font-weight="600" fill="#1a1a1a">Kimi-K3 EAGLE3</text>
</svg>
